<svg width="4500" height="1000" viewBox="0 0 4500 1000" fill="none" xmlns="http://www.w3.org/2000/svg">
  <path d="M183 642.394L263.645 642.394V299.394H183V642.394Z" fill="white"/>
  <path d="M278.579 299.394V526.072L279 526.394C279 526.394 409 554.394 410 409.751C410.853 286.393 279 299.394 279 299.394H278.579Z" fill="white"/>
  <path d="M443.12 625V338.098H636.872V392.332H507.704V448.636H622.382V501.628H507.704V570.766H646.394V625H443.12Z" fill="white"/>
  <path d="M906.984 338.098V393.16H820.458V625H755.874V393.16H669.348V338.098H906.984Z" fill="white"/>
  <path d="M1172.2 338.098V393.16H1085.68V625H1021.09V393.16H934.567V338.098H1172.2Z" fill="white"/>
  <path d="M1213.71 625V338.098H1407.46V392.332H1278.29V448.636H1392.97V501.628H1278.29V570.766H1416.98V625H1213.71Z" fill="white"/>
  <path d="M1548.82 334.786C1591.88 334.786 1624.86 342.514 1647.77 357.97C1670.67 373.15 1682.13 396.886 1682.13 429.178C1682.13 449.326 1677.44 465.748 1668.05 478.444C1658.94 490.864 1645.7 500.662 1628.31 507.838C1634.1 515.014 1640.18 523.294 1646.52 532.678C1652.87 541.786 1659.08 551.446 1665.15 561.658C1671.5 571.594 1677.57 582.082 1683.37 593.122C1689.17 603.886 1694.55 614.512 1699.52 625H1627.07C1621.82 615.616 1616.44 606.094 1610.92 596.434C1605.68 586.774 1600.16 577.39 1594.36 568.282C1588.84 559.174 1583.32 550.618 1577.8 542.614C1572.28 534.334 1566.76 526.882 1561.24 520.258H1529.36V625H1464.78V342.238C1478.85 339.478 1493.34 337.546 1508.25 336.442C1523.43 335.338 1536.95 334.786 1548.82 334.786ZM1552.55 389.848C1547.85 389.848 1543.58 389.986 1539.71 390.262C1536.12 390.538 1532.67 390.814 1529.36 391.09V468.922H1547.58C1571.87 468.922 1589.25 465.886 1599.74 459.814C1610.23 453.742 1615.47 443.392 1615.47 428.764C1615.47 414.688 1610.09 404.752 1599.33 398.956C1588.84 392.884 1573.25 389.848 1552.55 389.848Z" fill="white"/>
  <path d="M1844.51 300.838H1903.3V701.59H1844.51V300.838Z" fill="white"/>
  <path d="M2155.63 335.2C2197.31 335.2 2229.19 342.79 2251.27 357.97C2273.62 373.15 2284.8 396.886 2284.8 429.178C2284.8 446.014 2281.76 460.504 2275.69 472.648C2269.89 484.516 2261.34 494.314 2250.02 502.042C2238.71 509.494 2224.91 515.014 2208.62 518.602C2192.34 522.19 2173.71 523.984 2152.73 523.984H2126.65V625H2074.49V342.238C2086.63 339.478 2100.02 337.684 2114.65 336.856C2129.55 335.752 2143.21 335.2 2155.63 335.2ZM2159.36 380.326C2146.11 380.326 2135.21 380.74 2126.65 381.568V479.272H2151.91C2177.02 479.272 2196.34 475.822 2209.86 468.922C2223.39 461.746 2230.15 448.36 2230.15 428.764C2230.15 419.38 2228.36 411.514 2224.77 405.166C2221.18 398.818 2216.21 393.85 2209.86 390.262C2203.52 386.674 2195.93 384.19 2187.09 382.81C2178.54 381.154 2169.29 380.326 2159.36 380.326Z" fill="white"/>
  <path d="M2375.07 481.342C2375.07 497.074 2377 511.426 2380.87 524.398C2384.73 537.094 2390.25 547.996 2397.43 557.104C2404.88 565.936 2413.85 572.836 2424.34 577.804C2434.82 582.772 2446.69 585.256 2459.94 585.256C2472.91 585.256 2484.64 582.772 2495.13 577.804C2505.62 572.836 2514.45 565.936 2521.63 557.104C2529.08 547.996 2534.74 537.094 2538.6 524.398C2542.46 511.426 2544.4 497.074 2544.4 481.342C2544.4 465.61 2542.46 451.396 2538.6 438.7C2534.74 425.728 2529.08 414.826 2521.63 405.994C2514.45 396.886 2505.62 389.848 2495.13 384.88C2484.64 379.912 2472.91 377.428 2459.94 377.428C2446.69 377.428 2434.82 379.912 2424.34 384.88C2413.85 389.848 2404.88 396.886 2397.43 405.994C2390.25 415.102 2384.73 426.004 2380.87 438.7C2377 451.396 2375.07 465.61 2375.07 481.342ZM2599.04 481.342C2599.04 505.906 2595.32 527.572 2587.87 546.34C2580.69 565.108 2570.75 580.84 2558.06 593.536C2545.64 605.956 2531.01 615.34 2514.17 621.688C2497.34 628.036 2479.4 631.21 2460.35 631.21C2441.31 631.21 2423.23 628.036 2406.12 621.688C2389.28 615.34 2374.52 605.956 2361.82 593.536C2349.4 580.84 2339.47 565.108 2332.01 546.34C2324.56 527.572 2320.84 505.906 2320.84 481.342C2320.84 456.778 2324.56 435.25 2332.01 416.758C2339.47 397.99 2349.54 382.258 2362.24 369.562C2375.21 356.866 2390.11 347.344 2406.95 340.996C2423.78 334.648 2441.59 331.474 2460.35 331.474C2479.12 331.474 2496.92 334.648 2513.76 340.996C2530.6 347.344 2545.22 356.866 2557.64 369.562C2570.34 382.258 2580.41 397.99 2587.87 416.758C2595.32 435.25 2599.04 456.778 2599.04 481.342Z" fill="white"/>
  <path d="M2735.34 335.2C2776.74 335.2 2808.35 342.79 2830.15 357.97C2852.23 373.15 2863.27 396.334 2863.27 427.522C2863.27 466.438 2844.09 492.796 2805.72 506.596C2810.97 512.944 2816.9 520.672 2823.53 529.78C2830.15 538.888 2836.91 548.824 2843.81 559.588C2850.71 570.076 2857.34 580.978 2863.68 592.294C2870.03 603.334 2875.69 614.236 2880.66 625H2822.28C2817.04 615.064 2811.38 605.128 2805.31 595.192C2799.24 584.98 2793.03 575.182 2786.68 565.798C2780.61 556.138 2774.54 547.168 2768.46 538.888C2762.39 530.332 2756.73 522.742 2751.49 516.118C2747.63 516.394 2744.31 516.532 2741.55 516.532C2738.79 516.532 2736.17 516.532 2733.69 516.532H2708.43V625H2656.27V342.238C2668.97 339.478 2682.49 337.684 2696.84 336.856C2711.19 335.752 2724.03 335.2 2735.34 335.2ZM2739.07 380.326C2728.03 380.326 2717.82 380.74 2708.43 381.568V474.304H2731.2C2743.9 474.304 2755.08 473.614 2764.74 472.234C2774.4 470.854 2782.4 468.37 2788.75 464.782C2795.37 461.194 2800.34 456.364 2803.65 450.292C2806.97 444.22 2808.62 436.492 2808.62 427.108C2808.62 418.276 2806.97 410.824 2803.65 404.752C2800.34 398.68 2795.51 393.85 2789.16 390.262C2783.09 386.674 2775.78 384.19 2767.22 382.81C2758.67 381.154 2749.28 380.326 2739.07 380.326Z" fill="white"/>
  <path d="M3121.05 338.098V383.224H3032.86V625H2980.29V383.224H2892.1V338.098H3121.05Z" fill="white"/>
  <path d="M3160.83 625V338.098H3342.16V382.396H3213V455.674H3327.67V499.972H3213V625H3160.83Z" fill="white"/>
  <path d="M3427.05 481.342C3427.05 497.074 3428.98 511.426 3432.85 524.398C3436.71 537.094 3442.23 547.996 3449.41 557.104C3456.86 565.936 3465.83 572.836 3476.32 577.804C3486.8 582.772 3498.67 585.256 3511.92 585.256C3524.89 585.256 3536.62 582.772 3547.11 577.804C3557.6 572.836 3566.43 565.936 3573.61 557.104C3581.06 547.996 3586.72 537.094 3590.58 524.398C3594.44 511.426 3596.38 497.074 3596.38 481.342C3596.38 465.61 3594.44 451.396 3590.58 438.7C3586.72 425.728 3581.06 414.826 3573.61 405.994C3566.43 396.886 3557.6 389.848 3547.11 384.88C3536.62 379.912 3524.89 377.428 3511.92 377.428C3498.67 377.428 3486.8 379.912 3476.32 384.88C3465.83 389.848 3456.86 396.886 3449.41 405.994C3442.23 415.102 3436.71 426.004 3432.85 438.7C3428.98 451.396 3427.05 465.61 3427.05 481.342ZM3651.02 481.342C3651.02 505.906 3647.3 527.572 3639.85 546.34C3632.67 565.108 3622.73 580.84 3610.04 593.536C3597.62 605.956 3582.99 615.34 3566.15 621.688C3549.32 628.036 3531.38 631.21 3512.33 631.21C3493.29 631.21 3475.21 628.036 3458.1 621.688C3441.26 615.34 3426.5 605.956 3413.8 593.536C3401.38 580.84 3391.45 565.108 3383.99 546.34C3376.54 527.572 3372.82 505.906 3372.82 481.342C3372.82 456.778 3376.54 435.25 3383.99 416.758C3391.45 397.99 3401.52 382.258 3414.22 369.562C3427.19 356.866 3442.09 347.344 3458.93 340.996C3475.76 334.648 3493.57 331.474 3512.33 331.474C3531.1 331.474 3548.9 334.648 3565.74 340.996C3582.58 347.344 3597.2 356.866 3609.62 369.562C3622.32 382.258 3632.39 397.99 3639.85 416.758C3647.3 435.25 3651.02 456.778 3651.02 481.342Z" fill="white"/>
  <path d="M3889.58 579.874V625H3708.25V338.098H3760.41V579.874H3889.58Z" fill="white"/>
  <path d="M3929.4 338.098H3981.57V625H3929.4V338.098Z" fill="white"/>
  <path d="M4092.93 481.342C4092.93 497.074 4094.86 511.426 4098.72 524.398C4102.59 537.094 4108.11 547.996 4115.28 557.104C4122.74 565.936 4131.71 572.836 4142.19 577.804C4152.68 582.772 4164.55 585.256 4177.8 585.256C4190.77 585.256 4202.5 582.772 4212.99 577.804C4223.48 572.836 4232.31 565.936 4239.48 557.104C4246.94 547.996 4252.59 537.094 4256.46 524.398C4260.32 511.426 4262.25 497.074 4262.25 481.342C4262.25 465.61 4260.32 451.396 4256.46 438.7C4252.59 425.728 4246.94 414.826 4239.48 405.994C4232.31 396.886 4223.48 389.848 4212.99 384.88C4202.5 379.912 4190.77 377.428 4177.8 377.428C4164.55 377.428 4152.68 379.912 4142.19 384.88C4131.71 389.848 4122.74 396.886 4115.28 405.994C4108.11 415.102 4102.59 426.004 4098.72 438.7C4094.86 451.396 4092.93 465.61 4092.93 481.342ZM4316.9 481.342C4316.9 505.906 4313.18 527.572 4305.72 546.34C4298.55 565.108 4288.61 580.84 4275.92 593.536C4263.5 605.956 4248.87 615.34 4232.03 621.688C4215.2 628.036 4197.26 631.21 4178.21 631.21C4159.17 631.21 4141.09 628.036 4123.98 621.688C4107.14 615.34 4092.38 605.956 4079.68 593.536C4067.26 580.84 4057.32 565.108 4049.87 546.34C4042.42 527.572 4038.69 505.906 4038.69 481.342C4038.69 456.778 4042.42 435.25 4049.87 416.758C4057.32 397.99 4067.4 382.258 4080.09 369.562C4093.07 356.866 4107.97 347.344 4124.81 340.996C4141.64 334.648 4159.44 331.474 4178.21 331.474C4196.98 331.474 4214.78 334.648 4231.62 340.996C4248.45 347.344 4263.08 356.866 4275.5 369.562C4288.2 382.258 4298.27 397.99 4305.72 416.758C4313.18 435.25 4316.9 456.778 4316.9 481.342Z" fill="white"/>
  </svg>
  